<svg width="58" height="31" viewBox="0 0 58 31" fill="none" xmlns="http://www.w3.org/2000/svg">
<path d="M21.7456 18.3444C20.5933 21.3537 17.8117 23.2088 14.7916 23.2088C4.89707 23.2088 4.89707 7.70878 14.7916 7.70878C17.8117 7.70878 20.633 9.64628 21.7456 12.5731L28.6202 9.81117C26.4346 3.875 20.8714 0 14.7916 0C-4.91801 0 -4.91801 30.9588 14.7916 30.9588C20.8317 30.9588 26.3551 27.0838 28.5804 21.2301L21.7456 18.3444Z" fill="black"/>
<path d="M39.3082 26.1356H39.6261L45.5072 31H56.5541L49.9577 25.1875C61.4418 20.488 59.6536 0.123657 44.7521 0.123657H32.0363C32.0363 10.3471 31.9965 20.6941 31.9965 31H39.3082V26.1356ZM44.7521 7.33775C51.8651 7.33775 51.8651 18.9215 44.7521 18.9215H39.5068V7.33775H44.7521Z" fill="black"/>
<path d="M14.5122 23.2088C7.28001 23.0027 5.53157 14.387 9.26687 10.0997L4.73683 3.75134C-3.96561 11.9548 -0.667426 30.7527 14.5519 30.9588L14.5122 23.2088Z" fill="#00EEFF"/>
</svg>
